<?xml version="1.0" encoding="UTF-8" standalone="no"?>
<!-- Created with Inkscape (http://www.inkscape.org/) -->

<svg
   width="15.5321302mm"
   height="9.964004mm"
   viewBox="-5 0 15.5321302 9.964004"
   version="1.1"
   id="svg5"
   inkscape:version="1.1.2 (1:1.1+202202050852+0a00cf5339)"
   sodipodi:docname="icon.svg"
   xmlns:inkscape="http://www.inkscape.org/namespaces/inkscape"
   xmlns:sodipodi="http://sodipodi.sourceforge.net/DTD/sodipodi-0.dtd"
   xmlns="http://www.w3.org/2000/svg"
   xmlns:svg="http://www.w3.org/2000/svg">
  <sodipodi:namedview
     id="namedview7"
     pagecolor="#ffffff"
     bordercolor="#666666"
     borderopacity="1.0"
     inkscape:pageshadow="2"
     inkscape:pageopacity="0.0"
     inkscape:pagecheckerboard="0"
     inkscape:document-units="mm"
     showgrid="false"
     showguides="true"
     inkscape:guide-bbox="true"
     inkscape:snap-bbox="true"
     fit-margin-top="0"
     fit-margin-left="0"
     fit-margin-right="0"
     fit-margin-bottom="0"
     inkscape:zoom="1"
     inkscape:cx="8"
     inkscape:cy="21.5"
     inkscape:window-width="1920"
     inkscape:window-height="1002"
     inkscape:window-x="0"
     inkscape:window-y="25"
     inkscape:window-maximized="1"
     inkscape:current-layer="layer1">
    <sodipodi:guide
       position="10.784947,9.7937706"
       orientation="1,0"
       id="guide2311" />
  </sodipodi:namedview>
  <defs
     id="defs2" />
  <g
     inkscape:label="Layer 1"
     inkscape:groupmode="layer"
     id="layer1"
     transform="translate(-75.349732,-79.368477)">
    <g
       id="g2153">
      <path
         id="path1729"
         style="fill:#f2f2f2;fill-opacity:1;stroke:#000000;stroke-width:0.529167;stroke-linecap:round;stroke-linejoin:round;stroke-miterlimit:10"
         d="m 75.614315,81.299519 v 4.769854 c 0,0.55147 1.548772,0.998525 3.459278,0.998525 1.910506,0 3.459278,-0.447055 3.459278,-0.998525 V 81.30687"
         sodipodi:nodetypes="cscsc" />
      <path
         id="path1727"
         style="fill:#f2f2f2;fill-opacity:1;stroke:#000000;stroke-width:0.529167;stroke-linecap:round;stroke-linejoin:round;stroke-miterlimit:10"
         d="m 82.532871,84.481872 c 0,0.55147 -1.548772,0.998525 -3.459278,0.998525 -1.910506,0 -3.459278,-0.447055 -3.459278,-0.998525"
         sodipodi:nodetypes="csc" />
      <path
         id="path1474"
         style="fill:#f2f2f2;fill-opacity:1;stroke:#000000;stroke-width:0.529167;stroke-linecap:round;stroke-linejoin:round;stroke-miterlimit:10"
         d="m 82.532871,82.894371 c 0,0.55147 -1.548772,0.998525 -3.459278,0.998525 -1.910506,0 -3.459278,-0.447055 -3.459278,-0.998525"
         sodipodi:nodetypes="csc" />
      <path
         id="path846"
         style="fill:#f2f2f2;fill-opacity:1;stroke:#000000;stroke-width:0.529167;stroke-linecap:round;stroke-linejoin:round;stroke-miterlimit:10"
         d="m 82.532871,81.30687 a 3.4592781,0.9985252 0 0 1 -3.459278,0.998525 3.4592781,0.9985252 0 0 1 -3.459278,-0.998525 3.4592781,0.9985252 0 0 1 3.459278,-0.998526 3.4592781,0.9985252 0 0 1 3.459278,0.998526 z" />
    </g>
    <g
       id="g3050"
       transform="rotate(45,82.179003,76.477623)">
      <path
         style="fill:#f2f2f2;fill-opacity:1;stroke:#000000;stroke-width:0.529167;stroke-linecap:round;stroke-linejoin:round;stroke-miterlimit:10;stroke-dasharray:none"
         d="m 85.073377,84.181881 1.049607,1.797712 1.067028,-1.783375"
         id="path2966"
         sodipodi:nodetypes="ccc" />
      <path
         id="rect2177"
         style="fill:#f2f2f2;stroke:#000000;stroke-width:0.529167;stroke-linecap:round;stroke-linejoin:round;stroke-miterlimit:10"
         d="m 85.271234,77.925804 h 1.726243 c 0.10806,0 0.195054,0.08699 0.195054,0.195055 v 5.941024 c 0,0.108061 -0.08699,0.195055 -0.195054,0.195055 h -1.726243 c -0.10806,0 -0.195054,-0.08699 -0.195054,-0.195055 v -5.941024 c 0,-0.108061 0.08699,-0.195055 0.195054,-0.195055 z" />
    </g>
  </g>
</svg>
